<svg xmlns="http://www.w3.org/2000/svg" width="101.803" height="36.048" viewBox="0 0 101.803 36.048">
  <g id="그룹_2" data-name="그룹 2" transform="translate(-137.5 -18.048)">
    <text id="_3KM" data-name="3KM" transform="translate(137.5 47.096)" fill="#7e7e7e" font-size="30" font-family="NanumGothic, Nanum Gothic"><tspan x="0" y="0">3KM</tspan></text>
    <path id="패스_1" data-name="패스 1" d="M137.618,341.878c-3.053.409-4.317.081-5.274-.786a3.623,3.623,0,0,1-1.076-2.366,1.484,1.484,0,0,0-.495-1.382c-.687-.687-1.235-.366-1.235-.366l-6.5,6.5s-4.291,3.235,0,7.279,10.283,10.335,10.283,10.335,1.9,2.165,6.137,2.165h3.97s2.885.16,2.885-2.483a3.779,3.779,0,0,0-1.739-3.507s-5.457-2.055-5.457-6.668S140.672,341.469,137.618,341.878Z" transform="translate(91.985 -317.808)" fill="#ffe0bc" stroke="#707070" stroke-width="2"/>
    <line id="선_1" data-name="선 1" x2="2.278" transform="translate(213 39.141)" fill="none" stroke="#707070" stroke-linecap="round" stroke-width="2"/>
    <line id="선_4" data-name="선 4" x2="3.417" transform="translate(227.997 27.562)" fill="none" stroke="#707070" stroke-linecap="round" stroke-width="2"/>
    <line id="선_5" data-name="선 5" x2="3.037" transform="translate(227.997 30.219)" fill="none" stroke="#707070" stroke-linecap="round" stroke-width="2"/>
    <line id="선_6" data-name="선 6" x2="3.037" transform="translate(227.997 32.877)" fill="none" stroke="#707070" stroke-linecap="round" stroke-width="2"/>
    <line id="선_2" data-name="선 2" x2="5.505" transform="translate(213 42.369)" fill="none" stroke="#707070" stroke-linecap="round" stroke-width="2"/>
    <line id="선_3" data-name="선 3" x2="9.682" transform="translate(213 45.596)" fill="none" stroke="#707070" stroke-linecap="round" stroke-width="2"/>
    <path id="패스_2" data-name="패스 2" d="M131.509,371.513l13.1,15.059s1.6,1.451,2.447,1.513,7.579,0,7.579,0" transform="translate(83.581 -345.848)" fill="none" stroke="#707070" stroke-width="2"/>
    <path id="패스_3" data-name="패스 3" d="M147.507,355.346a7.013,7.013,0,0,1,.294,6.916" transform="translate(70.62 -332.749)" fill="none" stroke="#707070" stroke-width="2"/>
  </g>
</svg>
